<?xml version="1.0" encoding="utf-8"?>
<!-- Generator: Adobe Illustrator 22.0.1, SVG Export Plug-In . SVG Version: 6.00 Build 0)  -->
<svg version="1.1" id="Layer_1" xmlns="http://www.w3.org/2000/svg" xmlns:xlink="http://www.w3.org/1999/xlink" x="0px" y="0px"
	 viewBox="0 0 739.2 193.7" style="enable-background:new 0 0 739.2 193.7;" xml:space="preserve">
<style type="text/css">
	.st0{fill:#BC001F;}
	.st1{fill:#FFFFFF;}
</style>
<g>
	<g>
		<path class="st0" d="M181.5,140.4c3.1,0.4,4.8,6.6,2.2,11.2c-2.1,3.7-5.5,5.4-9.1,5.6c-1.5,0.1-3.1,0-4.7-0.8
			c-1.2-0.6-1.9-1.5-1.7-3c0-0.1,0-0.1,0-0.2c0,0,0,0,0,0c0,0,0,0.1,0,0.2c-0.1,1.5,0.6,2.1,1.4,2.3c1.4,0.4,3.7-0.5,4.6-1.9
			c0.5-0.7,2.4-2.6-3-6.1c-2.8-1.8,1.8-6.7,5.5-2.7c2.2,2.4,1.3,6.1,1.3,6.1s1.3-2.2,0.3-4.8C176.2,141.9,178.7,140.1,181.5,140.4"
			/>
		<path class="st0" d="M189.7,140.4c2.8-0.4,5.4,1.4,3.4,5.9c-0.9,2.6,0.5,4.8,0.5,4.8s-1.1-3.7,1-6.1c3.6-4.1,8.3,0.8,5.6,2.6
			c-5.2,3.6-3.3,5.5-2.7,6.2c1,1.4,3.3,2.3,4.7,1.9c0.8-0.3,1.5-0.8,1.3-2.3c0-0.1,0-0.2,0-0.2c0,0,0,0,0,0c0,0,0,0.1,0,0.2
			c0.3,1.5-0.4,2.4-1.5,3c-1.6,0.8-3.2,0.9-4.7,0.8c-3.6-0.1-7.1-1.8-9.4-5.5C185.2,147,186.6,140.8,189.7,140.4"/>
		<path class="st0" d="M204.5,150.6c0,1.2,1.1,2.2,2.3,2.2c1.2,0,2.2-1,2.2-2.3c0-1.2-1.1-2.2-2.3-2.2
			C205.4,148.3,204.5,149.3,204.5,150.6"/>
		<path class="st0" d="M163.4,151c0,1.2,1.1,2.2,2.3,2.2c1.2,0,2.2-1,2.2-2.3c0-1.2-1.1-2.2-2.3-2.2
			C164.4,148.7,163.4,149.7,163.4,151"/>
	</g>
	<g>
		<path class="st0" d="M548.2,140.4c3.1,0.4,4.8,6.6,2.2,11.2c-2.1,3.7-5.5,5.4-9.1,5.6c-1.5,0.1-3.1,0-4.7-0.8
			c-1.2-0.6-1.9-1.5-1.7-3c0-0.1,0-0.1,0-0.2c0,0,0,0,0,0c0,0,0,0.1,0,0.2c-0.1,1.5,0.6,2.1,1.4,2.3c1.4,0.4,3.7-0.5,4.6-1.9
			c0.5-0.7,2.4-2.6-3-6.1c-2.8-1.8,1.8-6.7,5.5-2.7c2.2,2.4,1.3,6.1,1.3,6.1s1.3-2.2,0.3-4.8C542.9,141.9,545.4,140.1,548.2,140.4"
			/>
		<path class="st0" d="M556.4,140.4c2.8-0.4,5.4,1.4,3.4,5.9c-0.9,2.6,0.5,4.8,0.5,4.8s-1.1-3.7,1-6.1c3.6-4.1,8.3,0.8,5.6,2.6
			c-5.2,3.6-3.3,5.5-2.7,6.2c1,1.4,3.3,2.3,4.7,1.9c0.8-0.3,1.5-0.8,1.3-2.3c0-0.1,0-0.2,0-0.2c0,0,0,0,0,0c0,0,0,0.1,0,0.2
			c0.3,1.5-0.4,2.4-1.5,3c-1.6,0.8-3.2,0.9-4.7,0.8c-3.6-0.1-7.1-1.8-9.4-5.5C551.9,147,553.3,140.8,556.4,140.4"/>
		<path class="st0" d="M571.2,150.6c0,1.2,1.1,2.2,2.3,2.2c1.2,0,2.2-1,2.2-2.3c0-1.2-1.1-2.2-2.3-2.2
			C572.2,148.3,571.2,149.3,571.2,150.6"/>
		<path class="st0" d="M530.1,151c0,1.2,1.1,2.2,2.3,2.2c1.2,0,2.2-1,2.2-2.3c0-1.2-1.1-2.2-2.3-2.2
			C531.1,148.7,530.1,149.7,530.1,151"/>
	</g>
	<g>
		<path d="M377.9,51.1c-17.9,0-32.5,14.6-32.5,32.5c0,17.9,14.6,32.5,32.5,32.5c17.9,0,32.5-14.6,32.5-32.5
			C410.4,65.6,395.8,51.1,377.9,51.1z M377.9,110.1c-14.6,0-26.5-11.9-26.5-26.5c0-14.6,11.9-26.5,26.5-26.5
			c14.6,0,26.5,11.9,26.5,26.5C404.4,98.2,392.5,110.1,377.9,110.1z"/>
		<path class="st0" d="M404.4,83.6c0,14.6-11.9,26.5-26.5,26.5c-14.6,0-26.5-11.9-26.5-26.5c0-14.6,11.9-26.5,26.5-26.5
			C392.5,57.1,404.4,68.9,404.4,83.6z"/>
		<path class="st1" d="M360.9,69.3c6.6-0.9,12.6,3.4,7.6,13.9c-2.3,6.1,0.9,11.1,0.9,11.1s-2.4-8.6,2.7-14.3
			c8.5-9.5,19.4,1.9,13,6.1c-12.4,8.3-7.9,12.7-6.7,14.4c2.2,3.2,7.7,5.4,10.9,4.4c1.9-0.6,3.6-1.9,3.3-5.4c0-0.3-0.1-0.4-0.1-0.5
			c0-0.1,0-0.1,0,0c0,0.1,0,0.2,0.1,0.4c0.5,3.5-1,5.7-3.8,7c-3.8,1.8-7.5,2-11,1.9c-8.4-0.4-16.4-4.4-21.6-13
			C350.1,84.8,353.8,70.3,360.9,69.3"/>
		<path d="M189.8,113.7h-26V54.1h24.7c12.4,0,19,7,19,17.3c0,6.8-4.7,10.6-6.5,11.8c2.4,1.5,7.4,4.6,7.4,13
			C208.4,107.5,200.5,113.7,189.8,113.7 M187.6,67.2h-9.1v9.7h9.1c4,0,5.3-2.5,5.3-4.9C192.9,69.7,191.7,67.2,187.6,67.2
			 M188.4,90.1h-9.9v10.5h9.9c4,0,5.4-2.8,5.4-5.3C193.7,92.7,192.4,90.1,188.4,90.1"/>
		<polygon points="218.5,113.7 218.5,54.1 259.1,54.1 259.1,67.1 233.2,67.1 233.2,77.1 255.3,77.1 255.3,90.2 233.2,90.2 
			233.2,100.6 259.1,100.6 259.1,113.7 		"/>
		<rect x="269.5" y="54.1" width="14.7" height="59.6"/>
		<path d="M326.3,113.7l-10.6-22.2h-4.9v22.2h-14.7V54.1h23.6c13.2,0,20.4,9.4,20.4,19.2c0,8.1-5,13.2-9.7,15.6l12.9,24.9H326.3z
			 M319.1,67.2h-8.3v12.1h8.3c4,0,6.4-2.9,6.4-6C325.5,70.1,323.2,67.2,319.1,67.2"/>
		<path d="M438.9,114.2c-12.4,0-22.5-8.4-22.5-21.4V54.1H431v38.4c0,5.5,3,8.7,7.9,8.7c4.9,0,8-3.2,8-8.7V54.1h14.7v38.7
			C461.6,105.8,451.3,114.2,438.9,114.2"/>
		<polygon points="506.4,113.7 487.3,83.7 487.3,113.7 472.7,113.7 472.7,54.1 485.5,54.1 504.6,84 504.6,54.1 519.2,54.1 
			519.2,113.7 		"/>
		<path d="M569.5,107.8c-4.1,4.1-9.9,5.9-16.1,5.9h-22.1V54.1h22.1c6.2,0,12,1.8,16.1,5.9c7,7,6.2,14.6,6.2,24
			C575.7,93.2,576.5,100.9,569.5,107.8 M559.5,70.5c-1.3-2-3.4-3.4-7-3.4H546v33.5h6.4c3.7,0,5.7-1.3,7-3.3
			c1.2-1.7,1.6-3.3,1.6-13.4C561,73.8,560.6,72.1,559.5,70.5"/>
	</g>
</g>
<g>
	<g>
		<path d="M227.8,135.8v27.1h-3.7v-27.1H219v-3.3h13.9v3.3H227.8z"/>
		<path d="M245,162.9v-16.3c0-2-1.2-3.1-2.6-3.1c-1.5,0-2.6,1-2.6,3.1v16.3h-3.5v-30.4h3.5v9.9c0.3-0.5,0.8-1,1.2-1.2
			c0.7-0.4,1.5-0.7,2.4-0.7c1.7,0,2.8,0.6,3.8,1.6c0.9,1,1.3,2.2,1.3,4.6v16.3H245z"/>
		<path d="M256,152.7c0,3.5,0.2,5.6,0.9,6.5c0.4,0.5,1,0.9,1.9,0.9c0.8,0,1.5-0.3,2-0.9c0.5-0.6,0.8-1.5,0.8-2.5h3.4
			c0,2-0.6,3.6-1.8,4.9c-1.1,1.2-2.6,1.6-4.4,1.6c-1.9,0-3.2-0.5-4.4-1.7c-1.7-1.8-2-5-2-9.7c0-4.7,0.2-7.9,1.9-9.7
			c1.2-1.2,2.6-1.7,4.4-1.7c1.8,0,3.2,0.5,4.4,1.7c1.8,2,1.9,5.8,1.9,10.5H256z M260.8,144.5c-0.4-0.5-1.1-0.9-2-0.9
			c-0.9,0-1.5,0.4-1.9,0.9c-0.7,0.8-0.9,2.6-0.9,5.6h5.6C261.7,147.1,261.5,145.3,260.8,144.5z"/>
		<path d="M285.4,162.9v-2c-0.3,0.6-0.9,1.2-1.3,1.5c-0.7,0.5-1.4,0.8-2.6,0.8c-1.6,0-2.8-0.5-3.8-1.7c-0.9-1-1.4-2.6-1.4-5
			c0-2,0.7-3.8,2-5c1.1-1,2.4-1.5,4.7-1.5h2.3v-3.5c0-2-0.9-3.2-2.6-3.2c-0.8,0-1.3,0.3-1.7,0.7c-0.6,0.6-0.8,1.4-0.8,2.6h-3.5
			c0-1.7,0.4-3.4,1.7-4.7c1-1,2.6-1.6,4.3-1.6c1.8,0,3.3,0.5,4.3,1.5c1.1,1.1,1.8,2.6,1.8,4.9v16.1H285.4z M285.3,152.7h-2
			c-1.1,0-1.8,0.2-2.5,0.8c-0.6,0.6-1,1.8-1,3c0,2.3,0.9,3.7,2.7,3.7c1.7,0,2.8-1.4,2.8-3.5V152.7z"/>
		<path d="M302.2,162.9v-1.7c-0.3,0.5-0.9,1.1-1.4,1.4c-0.7,0.4-1.5,0.7-2.4,0.7c-1.7,0-2.8-0.6-3.8-1.6c-0.9-1-1.3-2.2-1.3-4.6
			v-16.3h3.5v16.3c0,2.1,1.2,3.1,2.6,3.1c1.5,0,2.6-1,2.6-3.1v-16.3h3.5v22.1H302.2z"/>
		<path d="M313.3,161.6c-1.2-1-1.9-2.6-1.9-5v-13.1h-2.5v-2.7h2.5v-6.1h3.5v6.1h3.4v2.7h-3.4v13c0,2.3,1.2,3.3,3.5,3.3v3.1
			C316.4,162.9,314.7,162.8,313.3,161.6z"/>
		<path d="M330.5,162.9v-16.3c0-2-1.2-3.1-2.6-3.1c-1.5,0-2.6,1-2.6,3.1v16.3h-3.5v-30.4h3.5v9.9c0.3-0.5,0.8-1,1.2-1.2
			c0.7-0.4,1.5-0.7,2.4-0.7c1.7,0,2.8,0.6,3.8,1.6c0.9,1,1.3,2.2,1.3,4.6v16.3H330.5z"/>
		<path d="M341.5,152.7c0,3.5,0.2,5.6,0.9,6.5c0.4,0.5,1,0.9,1.9,0.9c0.8,0,1.5-0.3,2-0.9c0.5-0.6,0.8-1.5,0.8-2.5h3.4
			c0,2-0.6,3.6-1.8,4.9c-1.1,1.2-2.6,1.6-4.4,1.6c-1.9,0-3.2-0.5-4.4-1.7c-1.7-1.8-2-5-2-9.7c0-4.7,0.2-7.9,1.9-9.7
			c1.2-1.2,2.6-1.7,4.4-1.7c1.8,0,3.2,0.5,4.4,1.7c1.8,2,1.9,5.8,1.9,10.5H341.5z M346.3,144.5c-0.4-0.5-1.1-0.9-2-0.9
			c-0.9,0-1.5,0.4-1.9,0.9c-0.7,0.8-0.9,2.6-0.9,5.6h5.6C347.2,147.1,347,145.3,346.3,144.5z"/>
		<path d="M363.5,162.9v-16.3c0-2-1.2-3.1-2.6-3.1c-1.5,0-2.6,1-2.6,3.1v16.3h-3.5v-22.1h3.3v1.7c0.3-0.5,0.9-1.1,1.4-1.4
			c0.7-0.4,1.5-0.7,2.4-0.7c1.7,0,2.8,0.6,3.8,1.6c0.9,1,1.3,2.2,1.3,4.6v16.3H363.5z"/>
		<path d="M374.5,161.6c-1.2-1-1.9-2.6-1.9-5v-13.1h-2.5v-2.7h2.5v-6.1h3.5v6.1h3.4v2.7h-3.4v13c0,2.3,1.2,3.3,3.5,3.3v3.1
			C377.6,162.9,375.9,162.8,374.5,161.6z"/>
		<path d="M384.8,136.7c-1.3,0-2.3-1-2.3-2.3c0-1.3,1-2.3,2.3-2.3c1.3,0,2.3,1,2.3,2.3C387,135.6,386.1,136.7,384.8,136.7z
			 M383,162.9v-22.1h3.5v22.1H383z"/>
	</g>
	<g>
		<path d="M403.4,161.5c-1.2,1.2-3.1,1.8-5.3,1.8c-2.4,0-4.6-0.5-6.1-2.7c-1.5-2.2-1.6-6-1.6-9.1c0-3.1,0.1-6.9,1.6-9.1
			c1.5-2.2,3.6-2.7,6.1-2.7c2,0,3.7,0.3,5.2,1.8c1.5,1.4,2.1,3.7,2.3,5.7h-5.7c0-0.5-0.1-1.1-0.4-1.6c-0.3-0.4-0.7-0.7-1.4-0.7
			c-0.6,0-1.2,0.3-1.5,0.9c-0.4,0.9-0.4,3.2-0.4,5.8c0,2.6,0,4.9,0.4,5.8c0.3,0.6,0.9,0.9,1.5,0.9c0.7,0,1.2-0.3,1.4-0.8
			c0.3-0.5,0.3-1.1,0.4-1.5h5.7C405.4,158,404.7,160.2,403.4,161.5z"/>
		<path d="M411.5,138.5c-1.9,0-3.5-1.6-3.5-3.5s1.6-3.5,3.5-3.5s3.5,1.6,3.5,3.5S413.4,138.5,411.5,138.5z M408.7,162.9v-22.1h5.7
			v22.1H408.7z"/>
		<path d="M422.1,161.5c-1.6-1.2-2.6-3-2.6-6v-10.4h-2.1v-4.3h2.1v-6.3h5.7v6.3h2.8v4.3h-2.8v10c0,1.8,0.9,2.6,2.8,2.6v5.1
			C425.7,162.9,423.8,162.7,422.1,161.5z"/>
		<path d="M440.5,165c-1.3,5.2-5,5.3-9.6,5.3v-5c1.8,0,3.4,0.2,4-2.1l0.1-0.3l-5.9-23h6.3l2.6,13.9l2.6-13.9h6.3L440.5,165z"/>
		<path d="M466.6,138v24.9h-6.1V138h-5.1v-5.5h16.3v5.5H466.6z"/>
		<path d="M484.8,160.5c-1.5,2.2-3.6,2.7-6.1,2.7c-2.4,0-4.6-0.5-6.1-2.7c-1.5-2.2-1.6-6-1.6-9.1c0-3.1,0.1-6.9,1.6-9.1
			c1.5-2.2,3.6-2.7,6.1-2.7c2.4,0,4.6,0.5,6.1,2.7c1.5,2.2,1.6,6,1.6,9.1C486.4,154.5,486.3,158.4,484.8,160.5z M480.2,145.6
			c-0.3-0.6-0.9-0.9-1.5-0.9c-0.6,0-1.2,0.3-1.5,0.9c-0.4,0.9-0.4,3.2-0.4,5.8c0,2.6,0,4.9,0.4,5.8c0.3,0.6,0.9,0.9,1.5,0.9
			c0.6,0,1.2-0.3,1.5-0.9c0.4-0.9,0.4-3.2,0.4-5.8C480.7,148.8,480.7,146.6,480.2,145.6z"/>
		<path d="M499.3,162.9v-1.7c-0.5,0.6-1,1.1-1.7,1.5c-0.6,0.3-1.5,0.6-2.2,0.6c-2.1,0-3.3-0.6-4.4-1.9c-0.9-1.1-1.3-2.3-1.3-5.2V140
			h5.7v16.1c0,1.4,0.8,2.1,1.8,2.1c1,0,1.8-0.7,1.8-2.1V140h5.7v23H499.3z"/>
		<path d="M518.1,145.3c-1.9,0-3.5,1.4-3.5,3.7v14h-5.7v-23h5.5v2.5c0.6-0.8,1.5-1.5,2.5-2c1-0.5,2.1-0.8,3.4-0.8v5.6H518.1z"/>
	</g>
</g>
</svg>
